<?xml version="1.0" encoding="utf-8" ?>
<svg baseProfile="tiny" height="100%" version="1.2" width="100%" xmlns="http://www.w3.org/2000/svg" xmlns:ev="http://www.w3.org/2001/xml-events" xmlns:xlink="http://www.w3.org/1999/xlink"><defs /><polyline fill="white" points="35.8,34.0 36.0,33.8 36.8,33.0 37.0,32.8 38.0,32.8 39.0,32.8 39.8,32.0 40.0,31.8 41.0,31.8 42.0,31.8 42.8,31.0 43.0,30.8 43.8,30.0 44.0,29.8 44.8,29.0 44.8,28.0 44.8,27.0 45.0,26.8 45.2,27.0 46.0,27.8 46.2,28.0 46.2,29.0 47.0,29.8 47.2,30.0 48.0,30.8 49.0,30.8 49.2,31.0 50.0,31.8 51.0,31.8 52.0,31.8 52.2,32.0 53.0,32.8 53.2,33.0 54.0,33.8 55.0,33.8 55.8,33.0 55.8,32.0 55.8,31.0 55.8,30.0 55.8,29.0 55.8,28.0 55.8,27.0 55.8,26.0 55.8,25.0 55.0,24.2 54.8,24.0 54.0,23.2 53.8,23.0 54.0,22.8 55.0,22.8 55.2,23.0 56.0,23.8 56.8,23.0 57.0,22.8 58.0,22.8 59.0,22.8 60.0,22.8 61.0,22.8 62.0,22.8 62.8,22.0 63.0,21.8 63.8,21.0 63.0,20.2 62.0,20.2 61.8,20.0 61.0,19.2 60.8,19.0 60.8,18.0 60.0,17.2 59.8,17.0 59.8,16.0 59.0,15.2 58.0,15.2 57.8,15.0 57.0,14.2 56.8,14.0 56.0,13.2 55.0,13.2 54.0,13.2 53.0,13.2 52.0,13.2 51.0,13.2 50.0,13.2 49.8,13.0 50.0,12.8 50.8,12.0 50.8,11.0 51.0,10.8 51.8,10.0 52.0,9.8 52.8,9.0 52.8,8.0 53.0,7.8 53.8,7.0 53.0,6.2 52.8,6.0 52.8,5.0 52.0,4.2 51.0,4.2 50.2,5.0 50.2,6.0 50.2,7.0 50.0,7.2 49.2,8.0 49.2,9.0 49.2,10.0 49.0,10.2 48.2,11.0 48.2,12.0 48.0,12.2 47.8,12.0 47.0,11.2 46.8,11.0 46.8,10.0 46.0,9.2 45.8,9.0 45.0,8.2 44.0,8.2 43.8,8.0 43.0,7.2 42.0,7.2 41.8,7.0 41.0,6.2 40.0,6.2 39.8,6.0 39.0,5.2 38.0,5.2 37.8,5.0 37.0,4.2 36.2,5.0 36.2,6.0 36.2,7.0 36.2,8.0 36.2,9.0 36.2,10.0 36.2,11.0 36.2,12.0 37.0,12.8 37.2,13.0 37.2,14.0 38.0,14.8 38.2,15.0 38.0,15.2 37.0,15.2 36.0,15.2 35.0,15.2 34.0,15.2 33.0,15.2 32.0,15.2 31.0,15.2 30.0,15.2 29.2,16.0 29.0,16.2 28.0,16.2 27.2,17.0 27.0,17.2 26.2,18.0 27.0,18.8 27.2,19.0 28.0,19.8 28.2,20.0 29.0,20.8 29.2,21.0 30.0,21.8 31.0,21.8 31.2,22.0 32.0,22.8 33.0,22.8 34.0,22.8 35.0,22.8 36.0,22.8 37.0,22.8 37.2,23.0 37.0,23.2 36.2,24.0 36.0,24.2 35.2,25.0 35.0,25.2 34.2,26.0 34.2,27.0 34.2,28.0 34.2,29.0 34.2,30.0 34.2,31.0 34.2,32.0 34.0,32.2 33.2,33.0 33.2,34.0 34.0,34.8 35.0,34.8 35.8,34.0" stroke="black" stroke-width="0.5" /><polyline fill="white" points="72.8,33.0 73.0,32.8 73.8,32.0 73.8,31.0 73.8,30.0 73.8,29.0 73.0,28.2 72.2,29.0 72.2,30.0 72.2,31.0 72.0,31.2 71.0,31.2 70.0,31.2 69.0,31.2 68.8,31.0 68.0,30.2 67.8,30.0 67.0,29.2 66.8,29.0 66.8,28.0 66.8,27.0 67.0,26.8 67.8,26.0 68.0,25.8 68.8,25.0 69.0,24.8 70.0,24.8 71.0,24.8 72.0,24.8 73.0,24.8 73.8,24.0 73.0,23.2 72.0,23.2 71.8,23.0 71.0,22.2 70.0,22.2 69.2,23.0 69.0,23.2 68.0,23.2 67.2,24.0 67.0,24.2 66.2,25.0 66.0,25.2 65.2,26.0 65.2,27.0 65.2,28.0 65.2,29.0 65.2,30.0 65.2,31.0 66.0,31.8 66.2,32.0 67.0,32.8 68.0,32.8 68.2,33.0 69.0,33.8 70.0,33.8 71.0,33.8 72.0,33.8 72.8,33.0" stroke="black" stroke-width="0.5" /><polyline fill="white" points="76.8,32.0 76.8,31.0 76.8,30.0 76.8,29.0 77.0,28.8 77.8,28.0 78.0,27.8 78.8,27.0 78.8,26.0 78.0,25.2 77.2,26.0 77.0,26.2 76.0,26.2 75.2,27.0 75.2,28.0 75.2,29.0 75.2,30.0 75.2,31.0 75.2,32.0 76.0,32.8 76.8,32.0" stroke="black" stroke-width="0.5" /><polyline fill="white" points="89.8,35.0 89.8,34.0 90.0,33.8 91.0,33.8 91.8,33.0 92.0,32.8 93.0,32.8 93.8,32.0 93.8,31.0 94.0,30.8 94.8,30.0 94.8,29.0 94.8,28.0 94.0,27.2 93.8,27.0 93.0,26.2 92.8,26.0 92.0,25.2 91.0,25.2 90.2,26.0 90.0,26.2 89.0,26.2 88.0,26.2 87.2,27.0 87.2,28.0 87.2,29.0 87.2,30.0 87.2,31.0 87.2,32.0 87.2,33.0 87.2,34.0 87.2,35.0 88.0,35.8 89.0,35.8 89.8,35.0" stroke="black" stroke-width="0.5" /><polyline fill="white" points="99.8,33.0 100.0,32.8 101.0,32.8 101.8,32.0 101.8,31.0 102.0,30.8 102.8,30.0 102.8,29.0 102.0,28.2 101.8,28.0 101.8,27.0 101.0,26.2 100.8,26.0 100.0,25.2 99.0,25.2 98.0,25.2 97.2,26.0 97.0,26.2 96.2,27.0 96.0,27.2 95.2,28.0 95.2,29.0 95.2,30.0 95.2,31.0 96.0,31.8 96.2,32.0 97.0,32.8 97.2,33.0 98.0,33.8 99.0,33.8 99.8,33.0" stroke="black" stroke-width="0.5" /><polyline fill="white" points="83.8,33.0 84.0,32.8 85.0,32.8 86.0,32.8 86.8,32.0 86.0,31.2 85.8,31.0 85.8,30.0 85.8,29.0 85.8,28.0 85.8,27.0 85.0,26.2 84.2,27.0 84.2,28.0 84.2,29.0 84.2,30.0 84.2,31.0 84.0,31.2 83.0,31.2 82.0,31.2 81.8,31.0 81.8,30.0 81.8,29.0 81.8,28.0 81.8,27.0 81.0,26.2 80.2,27.0 80.2,28.0 80.2,29.0 80.2,30.0 80.2,31.0 80.2,32.0 81.0,32.8 81.2,33.0 82.0,33.8 83.0,33.8 83.8,33.0" stroke="black" stroke-width="0.5" /><polyline fill="white" points="208.8,40.0 209.0,39.8 210.0,39.8 210.8,39.0 211.0,38.8 211.8,38.0 212.0,37.8 212.8,37.0 212.8,36.0 212.0,35.2 211.2,36.0 211.0,36.2 210.2,37.0 210.0,37.2 209.8,37.0 209.8,36.0 209.0,35.2 208.8,35.0 208.8,34.0 209.0,33.8 209.8,33.0 209.8,32.0 209.8,31.0 209.0,30.2 208.8,30.0 208.0,29.2 207.0,29.2 206.0,29.2 205.0,29.2 204.0,29.2 203.2,30.0 203.2,31.0 203.2,32.0 203.2,33.0 203.2,34.0 203.2,35.0 203.2,36.0 204.0,36.8 204.8,36.0 204.8,35.0 205.0,34.8 206.0,34.8 207.0,34.8 207.2,35.0 207.2,36.0 208.0,36.8 208.2,37.0 209.0,37.8 209.2,38.0 209.0,38.2 208.2,39.0 208.0,39.2 207.0,39.2 206.0,39.2 205.0,39.2 204.8,39.0 204.0,38.2 203.0,38.2 202.8,38.0 202.0,37.2 201.8,37.0 201.8,36.0 201.0,35.2 200.8,35.0 200.8,34.0 200.8,33.0 200.8,32.0 201.0,31.8 201.8,31.0 201.8,30.0 202.0,29.8 202.8,29.0 203.0,28.8 204.0,28.8 204.8,28.0 205.0,27.8 206.0,27.8 207.0,27.8 207.8,27.0 207.0,26.2 206.0,26.2 205.0,26.2 204.2,27.0 204.0,27.2 203.0,27.2 202.2,28.0 202.0,28.2 201.2,29.0 201.0,29.2 200.2,30.0 200.2,31.0 200.0,31.2 199.2,32.0 199.2,33.0 199.2,34.0 199.2,35.0 199.2,36.0 200.0,36.8 200.2,37.0 201.0,37.8 201.2,38.0 202.0,38.8 202.2,39.0 203.0,39.8 204.0,39.8 204.2,40.0 205.0,40.8 206.0,40.8 207.0,40.8 208.0,40.8 208.8,40.0" stroke="black" stroke-width="0.5" /><polyline fill="white" points="92.0,31.2 91.0,31.2 90.0,31.2 89.8,31.0 89.8,30.0 89.8,29.0 89.8,28.0 90.0,27.8 91.0,27.8 92.0,27.8 92.2,28.0 92.2,29.0 92.2,30.0 92.2,31.0 92.0,31.2" stroke="black" stroke-width="0.5" /><polyline fill="white" points="99.0,31.2 98.0,31.2 97.8,31.0 97.0,30.2 96.8,30.0 96.8,29.0 97.0,28.8 97.8,28.0 98.0,27.8 99.0,27.8 99.2,28.0 100.0,28.8 100.2,29.0 100.2,30.0 100.0,30.2 99.2,31.0 99.0,31.2" stroke="black" stroke-width="0.5" /><polyline fill="white" points="212.8,31.0 212.0,30.2 211.8,30.0 211.8,29.0 211.0,28.2 210.8,28.0 210.0,27.2 209.0,27.2 208.2,28.0 209.0,28.8 209.2,29.0 210.0,29.8 210.2,30.0 211.0,30.8 211.2,31.0 212.0,31.8 212.8,31.0" stroke="black" stroke-width="0.5" /><polyline fill="white" points="206.0,33.2 205.8,33.0 205.0,32.2 204.8,32.0 205.0,31.8 205.8,31.0 206.0,30.8 207.0,30.8 207.2,31.0 208.0,31.8 208.2,32.0 208.0,32.2 207.0,32.2 206.2,33.0 206.0,33.2" stroke="black" stroke-width="0.5" /><polyline fill="white" points="24.8,76.0 24.8,75.0 24.8,74.0 24.8,73.0 24.8,72.0 24.8,71.0 24.8,70.0 24.8,69.0 24.8,68.0 24.8,67.0 24.8,66.0 24.8,65.0 24.8,64.0 24.8,63.0 24.8,62.0 24.8,61.0 24.8,60.0 24.8,59.0 24.8,58.0 24.8,57.0 24.8,56.0 24.8,55.0 24.8,54.0 24.8,53.0 24.8,52.0 24.8,51.0 24.8,50.0 24.8,49.0 24.8,48.0 24.8,47.0 24.8,46.0 25.0,45.8 26.0,45.8 27.0,45.8 28.0,45.8 29.0,45.8 30.0,45.8 31.0,45.8 32.0,45.8 33.0,45.8 34.0,45.8 34.8,45.0 34.8,44.0 34.8,43.0 34.0,42.2 33.8,42.0 33.8,41.0 33.0,40.2 32.0,40.2 31.0,40.2 30.0,40.2 29.0,40.2 28.0,40.2 27.2,41.0 27.0,41.2 26.0,41.2 25.0,41.2 24.0,41.2 23.0,41.2 22.0,41.2 21.0,41.2 20.0,41.2 19.0,41.2 18.0,41.2 17.0,41.2 16.0,41.2 15.0,41.2 14.0,41.2 13.0,41.2 12.0,41.2 11.0,41.2 10.8,41.0 10.0,40.2 9.0,40.2 8.0,40.2 7.0,40.2 6.2,41.0 6.2,42.0 6.2,43.0 6.2,44.0 6.2,45.0 7.0,45.8 8.0,45.8 9.0,45.8 10.0,45.8 11.0,45.8 12.0,45.8 13.0,45.8 14.0,45.8 15.0,45.8 15.2,46.0 15.2,47.0 15.2,48.0 15.2,49.0 15.2,50.0 15.2,51.0 15.2,52.0 15.2,53.0 15.2,54.0 15.2,55.0 15.2,56.0 15.2,57.0 15.2,58.0 15.2,59.0 15.2,60.0 15.2,61.0 15.2,62.0 15.2,63.0 15.2,64.0 15.2,65.0 15.2,66.0 15.2,67.0 15.2,68.0 15.2,69.0 15.2,70.0 15.2,71.0 15.2,72.0 15.2,73.0 15.2,74.0 15.2,75.0 15.0,75.2 14.2,76.0 15.0,76.8 16.0,76.8 17.0,76.8 18.0,76.8 19.0,76.8 20.0,76.8 21.0,76.8 22.0,76.8 23.0,76.8 24.0,76.8 24.8,76.0" stroke="black" stroke-width="0.5" /><polyline fill="white" points="47.8,77.0 47.8,76.0 47.8,75.0 47.8,74.0 47.8,73.0 47.8,72.0 47.8,71.0 47.8,70.0 47.8,69.0 47.8,68.0 47.8,67.0 47.8,66.0 47.8,65.0 47.8,64.0 47.8,63.0 47.8,62.0 47.8,61.0 47.8,60.0 47.8,59.0 47.8,58.0 47.8,57.0 47.8,56.0 47.8,55.0 47.8,54.0 47.8,53.0 47.8,52.0 47.8,51.0 47.8,50.0 47.8,49.0 47.8,48.0 47.8,47.0 47.8,46.0 47.8,45.0 47.8,44.0 47.8,43.0 47.8,42.0 47.0,41.2 46.0,41.2 45.0,41.2 44.0,41.2 43.0,41.2 42.0,41.2 41.0,41.2 40.0,41.2 39.8,41.0 39.0,40.2 38.2,41.0 38.2,42.0 38.2,43.0 38.2,44.0 38.2,45.0 38.2,46.0 38.2,47.0 38.2,48.0 38.2,49.0 38.2,50.0 38.2,51.0 38.2,52.0 38.2,53.0 38.2,54.0 38.2,55.0 38.2,56.0 38.2,57.0 38.2,58.0 38.2,59.0 38.2,60.0 38.2,61.0 38.2,62.0 38.2,63.0 38.2,64.0 38.2,65.0 38.2,66.0 38.2,67.0 38.2,68.0 38.2,69.0 38.2,70.0 38.2,71.0 38.2,72.0 38.2,73.0 38.2,74.0 38.2,75.0 38.2,76.0 38.2,77.0 39.0,77.8 40.0,77.8 41.0,77.8 42.0,77.8 43.0,77.8 44.0,77.8 45.0,77.8 46.0,77.8 47.0,77.8 47.8,77.0" stroke="black" stroke-width="0.5" /><polyline fill="white" points="84.8,77.0 84.8,76.0 84.0,75.2 83.8,75.0 83.8,74.0 83.8,73.0 83.0,72.2 82.8,72.0 82.8,71.0 82.0,70.2 81.8,70.0 81.8,69.0 81.8,68.0 81.0,67.2 80.8,67.0 80.8,66.0 80.0,65.2 79.8,65.0 79.8,64.0 79.8,63.0 79.0,62.2 78.8,62.0 78.8,61.0 78.8,60.0 78.0,59.2 77.8,59.0 77.8,58.0 77.0,57.2 76.8,57.0 76.8,56.0 76.8,55.0 76.0,54.2 75.8,54.0 75.8,53.0 75.8,52.0 75.0,51.2 74.8,51.0 74.8,50.0 74.0,49.2 73.8,49.0 73.8,48.0 73.8,47.0 73.0,46.2 72.8,46.0 72.8,45.0 72.8,44.0 72.0,43.2 71.8,43.0 71.8,42.0 71.8,41.0 71.0,40.2 70.0,40.2 69.0,40.2 68.0,40.2 67.0,40.2 66.0,40.2 65.0,40.2 64.2,41.0 64.2,42.0 64.2,43.0 64.0,43.2 63.2,44.0 63.2,45.0 63.2,46.0 63.0,46.2 62.2,47.0 62.2,48.0 62.2,49.0 62.0,49.2 61.2,50.0 61.2,51.0 61.0,51.2 60.2,52.0 60.2,53.0 60.2,54.0 60.0,54.2 59.2,55.0 59.2,56.0 59.0,56.2 58.2,57.0 58.2,58.0 58.2,59.0 58.0,59.2 57.2,60.0 57.2,61.0 57.0,61.2 56.2,62.0 56.2,63.0 56.2,64.0 56.0,64.2 55.2,65.0 55.2,66.0 55.0,66.2 54.2,67.0 54.2,68.0 54.2,69.0 54.0,69.2 53.2,70.0 53.2,71.0 53.0,71.2 52.2,72.0 52.2,73.0 52.0,73.2 51.2,74.0 51.2,75.0 51.0,75.2 50.2,76.0 51.0,76.8 51.2,77.0 52.0,77.8 53.0,77.8 54.0,77.8 55.0,77.8 56.0,77.8 56.8,77.0 56.8,76.0 57.0,75.8 57.8,75.0 57.8,74.0 57.8,73.0 58.0,72.8 58.8,72.0 58.8,71.0 58.8,70.0 59.0,69.8 59.8,69.0 59.8,68.0 60.0,67.8 60.8,67.0 61.0,66.8 62.0,66.8 63.0,66.8 64.0,66.8 65.0,66.8 66.0,66.8 67.0,66.8 68.0,66.8 69.0,66.8 70.0,66.8 70.2,67.0 71.0,67.8 71.2,68.0 71.2,69.0 71.2,70.0 72.0,70.8 72.2,71.0 72.2,72.0 72.2,73.0 73.0,73.8 73.2,74.0 73.2,75.0 73.2,76.0 74.0,76.8 74.2,77.0 75.0,77.8 76.0,77.8 77.0,77.8 78.0,77.8 79.0,77.8 80.0,77.8 81.0,77.8 82.0,77.8 83.0,77.8 84.0,77.8 84.8,77.0" stroke="black" stroke-width="0.5" /><polyline fill="white" points="148.8,77.0 148.8,76.0 148.8,75.0 148.0,74.2 147.8,74.0 147.8,73.0 147.8,72.0 147.0,71.2 146.8,71.0 146.8,70.0 146.0,69.2 145.8,69.0 145.8,68.0 145.8,67.0 145.0,66.2 144.8,66.0 144.8,65.0 144.0,64.2 143.8,64.0 143.8,63.0 143.8,62.0 143.0,61.2 142.8,61.0 142.8,60.0 142.8,59.0 142.0,58.2 141.8,58.0 141.8,57.0 141.0,56.2 140.8,56.0 140.8,55.0 140.8,54.0 140.0,53.2 139.8,53.0 139.8,52.0 139.8,51.0 139.0,50.2 138.8,50.0 138.8,49.0 138.8,48.0 138.0,47.2 137.8,47.0 137.8,46.0 137.0,45.2 136.8,45.0 136.8,44.0 136.8,43.0 136.0,42.2 135.8,42.0 135.8,41.0 135.0,40.2 134.0,40.2 133.0,40.2 132.0,40.2 131.0,40.2 130.0,40.2 129.2,41.0 129.0,41.2 128.2,42.0 128.2,43.0 128.2,44.0 128.0,44.2 127.2,45.0 127.2,46.0 127.2,47.0 127.0,47.2 126.2,48.0 126.2,49.0 126.2,50.0 126.0,50.2 125.2,51.0 125.2,52.0 125.0,52.2 124.2,53.0 124.2,54.0 124.2,55.0 124.0,55.2 123.2,56.0 123.2,57.0 123.0,57.2 122.2,58.0 122.2,59.0 122.2,60.0 122.0,60.2 121.2,61.0 121.2,62.0 121.0,62.2 120.2,63.0 120.2,64.0 120.2,65.0 120.0,65.2 119.2,66.0 119.2,67.0 119.0,67.2 118.2,68.0 118.2,69.0 118.0,69.2 117.2,70.0 117.2,71.0 117.2,72.0 117.0,72.2 116.2,73.0 116.2,74.0 116.0,74.2 115.8,74.0 115.0,73.2 114.8,73.0 114.0,72.2 113.8,72.0 113.8,71.0 113.0,70.2 112.8,70.0 112.0,69.2 111.8,69.0 111.8,68.0 111.0,67.2 110.8,67.0 110.8,66.0 110.0,65.2 109.8,65.0 109.0,64.2 108.8,64.0 108.8,63.0 108.0,62.2 107.8,62.0 107.0,61.2 106.8,61.0 106.8,60.0 106.8,59.0 107.0,58.8 108.0,58.8 109.0,58.8 109.8,58.0 110.0,57.8 110.8,57.0 111.0,56.8 111.8,56.0 112.0,55.8 112.8,55.0 113.0,54.8 113.8,54.0 113.8,53.0 113.8,52.0 113.8,51.0 113.8,50.0 113.8,49.0 113.8,48.0 113.8,47.0 113.8,46.0 113.0,45.2 112.8,45.0 112.8,44.0 112.0,43.2 111.8,43.0 111.0,42.2 110.0,42.2 109.8,42.0 109.0,41.2 108.0,41.2 107.8,41.0 107.0,40.2 106.0,40.2 105.0,40.2 104.0,40.2 103.0,40.2 102.0,40.2 101.0,40.2 100.0,40.2 99.0,40.2 98.0,40.2 97.0,40.2 96.0,40.2 95.0,40.2 94.0,40.2 93.0,40.2 92.0,40.2 91.0,40.2 90.0,40.2 89.0,40.2 88.0,40.2 87.2,41.0 87.2,42.0 87.2,43.0 87.2,44.0 87.2,45.0 87.2,46.0 87.2,47.0 87.2,48.0 87.2,49.0 87.2,50.0 87.2,51.0 87.2,52.0 87.2,53.0 87.2,54.0 87.2,55.0 87.2,56.0 87.2,57.0 87.2,58.0 87.2,59.0 87.2,60.0 87.2,61.0 87.2,62.0 87.2,63.0 87.2,64.0 87.2,65.0 87.2,66.0 87.2,67.0 87.2,68.0 87.2,69.0 87.2,70.0 87.2,71.0 87.2,72.0 87.2,73.0 87.2,74.0 87.2,75.0 87.2,76.0 87.2,77.0 88.0,77.8 89.0,77.8 89.8,77.0 90.0,76.8 91.0,76.8 92.0,76.8 93.0,76.8 94.0,76.8 94.2,77.0 95.0,77.8 96.0,77.8 96.8,77.0 96.8,76.0 96.8,75.0 96.8,74.0 96.8,73.0 96.8,72.0 96.8,71.0 96.8,70.0 96.8,69.0 96.8,68.0 96.8,67.0 96.8,66.0 96.8,65.0 96.8,64.0 96.8,63.0 96.8,62.0 97.0,61.8 97.2,62.0 98.0,62.8 98.2,63.0 98.2,64.0 99.0,64.8 99.2,65.0 100.0,65.8 100.2,66.0 100.2,67.0 101.0,67.8 101.2,68.0 101.2,69.0 102.0,69.8 102.2,70.0 102.2,71.0 103.0,71.8 103.2,72.0 104.0,72.8 104.2,73.0 104.2,74.0 105.0,74.8 105.2,75.0 105.2,76.0 106.0,76.8 106.2,77.0 107.0,77.8 108.0,77.8 108.8,77.0 109.0,76.8 110.0,76.8 111.0,76.8 112.0,76.8 113.0,76.8 114.0,76.8 114.2,77.0 115.0,77.8 116.0,77.8 117.0,77.8 118.0,77.8 119.0,77.8 120.0,77.8 120.8,77.0 121.0,76.8 121.8,76.0 121.8,75.0 121.8,74.0 122.0,73.8 122.8,73.0 122.8,72.0 122.8,71.0 123.0,70.8 123.8,70.0 123.8,69.0 123.8,68.0 124.0,67.8 125.0,67.8 126.0,67.8 126.8,67.0 127.0,66.8 128.0,66.8 129.0,66.8 130.0,66.8 131.0,66.8 132.0,66.8 133.0,66.8 134.0,66.8 134.2,67.0 135.0,67.8 135.2,68.0 136.0,68.8 136.2,69.0 136.2,70.0 136.2,71.0 136.2,72.0 137.0,72.8 137.2,73.0 137.2,74.0 137.2,75.0 138.0,75.8 138.2,76.0 138.2,77.0 139.0,77.8 140.0,77.8 141.0,77.8 142.0,77.8 143.0,77.8 144.0,77.8 145.0,77.8 146.0,77.8 147.0,77.8 148.0,77.8 148.8,77.0" stroke="black" stroke-width="0.5" /><polyline fill="white" points="153.8,85.0 154.0,84.8 155.0,84.8 155.8,84.0 156.0,83.8 157.0,83.8 157.8,83.0 158.0,82.8 158.8,82.0 159.0,81.8 159.8,81.0 159.8,80.0 160.0,79.8 160.8,79.0 160.8,78.0 161.0,77.8 161.8,77.0 161.8,76.0 161.8,75.0 161.8,74.0 161.8,73.0 161.8,72.0 161.8,71.0 161.8,70.0 161.8,69.0 161.8,68.0 161.8,67.0 161.8,66.0 161.8,65.0 161.8,64.0 161.8,63.0 161.8,62.0 161.8,61.0 161.8,60.0 161.8,59.0 161.8,58.0 161.8,57.0 161.8,56.0 161.8,55.0 161.8,54.0 161.8,53.0 161.8,52.0 161.8,51.0 161.8,50.0 161.8,49.0 161.8,48.0 161.8,47.0 161.8,46.0 161.8,45.0 161.8,44.0 162.0,43.8 162.8,43.0 162.8,42.0 162.0,41.2 161.8,41.0 161.0,40.2 160.0,40.2 159.0,40.2 158.0,40.2 157.0,40.2 156.0,40.2 155.0,40.2 154.0,40.2 153.0,40.2 152.2,41.0 152.2,42.0 152.2,43.0 152.2,44.0 152.2,45.0 152.2,46.0 152.2,47.0 152.2,48.0 152.2,49.0 152.2,50.0 152.2,51.0 152.2,52.0 152.2,53.0 152.2,54.0 152.2,55.0 152.2,56.0 152.2,57.0 152.2,58.0 152.2,59.0 152.2,60.0 152.2,61.0 152.2,62.0 152.2,63.0 152.2,64.0 152.2,65.0 152.2,66.0 152.2,67.0 152.2,68.0 152.2,69.0 152.2,70.0 152.2,71.0 152.2,72.0 152.2,73.0 152.2,74.0 152.2,75.0 152.2,76.0 152.2,77.0 152.2,78.0 152.2,79.0 152.2,80.0 152.0,80.2 151.2,81.0 151.0,81.2 150.2,82.0 150.0,82.2 149.0,82.2 148.0,82.2 147.0,82.2 146.2,83.0 146.2,84.0 147.0,84.8 147.2,85.0 148.0,85.8 149.0,85.8 150.0,85.8 151.0,85.8 152.0,85.8 153.0,85.8 153.8,85.0" stroke="black" stroke-width="0.5" /><polyline fill="white" points="190.8,77.0 191.0,76.8 192.0,76.8 193.0,76.8 193.8,76.0 194.0,75.8 195.0,75.8 195.8,75.0 196.0,74.8 196.8,74.0 197.0,73.8 197.8,73.0 197.8,72.0 198.0,71.8 198.8,71.0 199.0,70.8 199.8,70.0 199.8,69.0 199.8,68.0 199.8,67.0 200.0,66.8 200.8,66.0 200.8,65.0 200.8,64.0 200.8,63.0 200.8,62.0 200.8,61.0 200.8,60.0 200.8,59.0 200.8,58.0 200.8,57.0 200.8,56.0 200.8,55.0 200.8,54.0 200.8,53.0 200.8,52.0 200.8,51.0 200.8,50.0 200.8,49.0 200.8,48.0 200.8,47.0 200.8,46.0 200.8,45.0 200.8,44.0 200.8,43.0 200.8,42.0 200.8,41.0 200.0,40.2 199.0,40.2 198.2,41.0 198.0,41.2 197.0,41.2 196.8,41.0 196.0,40.2 195.2,41.0 195.0,41.2 194.2,42.0 194.2,43.0 195.0,43.8 195.2,44.0 195.2,45.0 195.2,46.0 195.2,47.0 195.2,48.0 195.2,49.0 195.2,50.0 195.2,51.0 195.2,52.0 195.2,53.0 195.2,54.0 195.2,55.0 195.2,56.0 195.2,57.0 195.2,58.0 195.2,59.0 195.2,60.0 195.2,61.0 195.2,62.0 195.2,63.0 195.2,64.0 195.2,65.0 195.0,65.2 194.2,66.0 194.2,67.0 194.2,68.0 194.0,68.2 193.2,69.0 193.0,69.2 192.2,70.0 192.0,70.2 191.2,71.0 191.0,71.2 190.2,72.0 190.0,72.2 189.0,72.2 188.0,72.2 187.0,72.2 186.0,72.2 185.0,72.2 184.0,72.2 183.0,72.2 182.8,72.0 182.0,71.2 181.0,71.2 180.8,71.0 180.0,70.2 179.8,70.0 179.8,69.0 179.0,68.2 178.8,68.0 178.8,67.0 178.8,66.0 178.8,65.0 178.8,64.0 178.8,63.0 178.8,62.0 178.8,61.0 178.8,60.0 178.0,59.2 177.8,59.0 178.0,58.8 178.8,58.0 178.8,57.0 178.8,56.0 178.8,55.0 178.8,54.0 178.8,53.0 178.8,52.0 178.8,51.0 178.8,50.0 178.8,49.0 178.8,48.0 178.8,47.0 178.8,46.0 178.8,45.0 178.8,44.0 178.8,43.0 178.8,42.0 178.8,41.0 178.0,40.2 177.0,40.2 176.2,41.0 176.0,41.2 175.0,41.2 174.8,41.0 174.0,40.2 173.2,41.0 173.0,41.2 172.8,41.0 172.0,40.2 171.0,40.2 170.0,40.2 169.2,41.0 169.0,41.2 168.2,42.0 168.2,43.0 169.0,43.8 169.2,44.0 169.2,45.0 169.2,46.0 169.2,47.0 169.2,48.0 169.2,49.0 169.2,50.0 169.2,51.0 169.2,52.0 169.2,53.0 169.2,54.0 169.2,55.0 169.2,56.0 169.2,57.0 169.2,58.0 169.2,59.0 169.2,60.0 169.2,61.0 169.2,62.0 169.2,63.0 169.2,64.0 169.2,65.0 169.2,66.0 169.2,67.0 169.2,68.0 169.2,69.0 170.0,69.8 170.2,70.0 170.2,71.0 171.0,71.8 171.2,72.0 171.2,73.0 172.0,73.8 172.2,74.0 173.0,74.8 174.0,74.8 174.2,75.0 175.0,75.8 175.2,76.0 176.0,76.8 177.0,76.8 178.0,76.8 178.2,77.0 179.0,77.8 180.0,77.8 181.0,77.8 182.0,77.8 183.0,77.8 184.0,77.8 185.0,77.8 186.0,77.8 187.0,77.8 188.0,77.8 189.0,77.8 190.0,77.8 190.8,77.0" stroke="black" stroke-width="0.5" /><polyline fill="white" points="99.0,57.2 98.0,57.2 97.0,57.2 96.8,57.0 96.8,56.0 96.8,55.0 96.8,54.0 96.8,53.0 96.8,52.0 96.8,51.0 96.8,50.0 96.8,49.0 96.8,48.0 96.8,47.0 96.8,46.0 96.8,45.0 97.0,44.8 98.0,44.8 99.0,44.8 100.0,44.8 101.0,44.8 102.0,44.8 102.2,45.0 103.0,45.8 103.2,46.0 104.0,46.8 104.2,47.0 104.2,48.0 104.2,49.0 104.2,50.0 104.2,51.0 104.2,52.0 104.2,53.0 104.2,54.0 104.0,54.2 103.2,55.0 103.0,55.2 102.2,56.0 102.0,56.2 101.0,56.2 100.0,56.2 99.2,57.0 99.0,57.2" stroke="black" stroke-width="0.5" /><polyline fill="white" points="69.0,62.2 68.0,62.2 67.0,62.2 66.0,62.2 65.0,62.2 64.0,62.2 63.0,62.2 62.0,62.2 61.8,62.0 61.8,61.0 62.0,60.8 62.8,60.0 62.8,59.0 63.0,58.8 63.8,58.0 63.8,57.0 63.8,56.0 64.0,55.8 64.8,55.0 64.8,54.0 64.8,53.0 65.0,52.8 66.0,52.8 66.2,53.0 66.2,54.0 66.2,55.0 67.0,55.8 67.2,56.0 67.2,57.0 68.0,57.8 68.2,58.0 68.2,59.0 68.2,60.0 69.0,60.8 69.2,61.0 69.2,62.0 69.0,62.2" stroke="black" stroke-width="0.5" /><polyline fill="white" points="133.0,62.2 132.0,62.2 131.0,62.2 130.0,62.2 129.0,62.2 128.0,62.2 127.0,62.2 126.8,62.0 126.8,61.0 126.8,60.0 127.0,59.8 127.8,59.0 127.8,58.0 127.8,57.0 128.0,56.8 128.8,56.0 128.8,55.0 128.8,54.0 129.0,53.8 129.8,53.0 130.0,52.8 130.2,53.0 131.0,53.8 131.2,54.0 131.2,55.0 131.2,56.0 132.0,56.8 132.2,57.0 132.2,58.0 132.2,59.0 133.0,59.8 133.2,60.0 133.2,61.0 133.2,62.0 133.0,62.2" stroke="black" stroke-width="0.5" /></svg>